<svg xmlns="http://www.w3.org/2000/svg" viewBox="0 0 97.67861 73.77589" x="0px" y="0px"><title>trump tiny hands2</title><circle cx="94.07042" cy="93.83066" r="0.92313" transform="translate(-3.03845 159.68235) rotate(-88.8445)"></circle><path d="M7.59668,91.61462a.91566.91566,0,1,0-.4469,1.77417.90222.90222,0,0,0,.285.02844.921.921,0,0,0,.16193-1.80261Z" transform="translate(-1.40028 -26.30742)"></path><path d="M46.33691,69.13826c-.18152-.25665-1.80061-2.56057,1.35837.66283,1.93056,1.96992,4.26423,1.14208,5.74931.17438,1.10807-.722,2.01031-2.56617,2.61265-3.41462.194-.22647-.1333.91015-.4975,1.64364C53.2603,72.83559,48.43415,72.10357,46.33691,69.13826Z" transform="translate(-1.40028 -26.30742)"></path><path d="M48.86606,67.56506A5.40264,5.40264,0,0,1,50.842,66.5242a4.715,4.715,0,0,1,2.70106.04176c.26832.10252.481.20544.63057.27666.14856.07325.12564.12141-.03427.078-.15894-.045-.40639-.07224-.67766-.139a4.83174,4.83174,0,0,0-1.93153.072,9.71012,9.71012,0,0,0-2.00356.52258c-.25911.10223-.47274.19465-.62136.26655C48.757,67.717,48.801,67.61773,48.86606,67.56506Z" transform="translate(-1.40028 -26.30742)"></path><path d="M42.56723,66.57377c.18884.40193-.6972-.39165-1.34-1.29974-.28987-.40951-.62239-.80346-.944-1.18461-.2982-.35327-.60662-.71872-.88625-1.10163a10.25544,10.25544,0,0,1-1.68888-3.68242s.18382-1.96262.46869-.10952a9.6825,9.6825,0,0,0,1.6089,3.508c.2696.3693.57246.72821.86536,1.07523.328.38877.66732.79063.969,1.21682A7.96874,7.96874,0,0,1,42.56723,66.57377Z" transform="translate(-1.40028 -26.30742)"></path><path d="M54.08337,61.165a1.81537,1.81537,0,0,1-.57751-.27679,5.24812,5.24812,0,0,1-.79535-1.82367c-.20624-.632-.3772-1.40259-.644-2.02307-.192-.44666-.4433-.72272-.66052-.72168-.21619.00256-.35986.25464-.63055.67651a.38274.38274,0,0,1-.36755-.16339.40415.40415,0,0,0-.47443-.21423c-.37524.12256-.64215.93036-.71155,1.43237a7.439,7.439,0,0,1-.96692,3.17609,1.10818,1.10818,0,0,1-.08594.09534c-.15454.13513-.169.22455-.26276.28809-.13416.09094.20282.03613.27167.03644h.00037c.07434-.00916.08057.02991.11182.083.10626.20782.31732.847.514,1.32831a18.97538,18.97538,0,0,0,.83044,1.87964,1.86812,1.86812,0,0,0,1.67316.77057c.051-.0033.11249-.00232.16211-.01062a1.39964,1.39964,0,0,0,1.14563-1.08563,10.19787,10.19787,0,0,1,1.26-3.34308C54.0163,61.2666,54.19788,61.19183,54.08337,61.165Zm-4.57245-3.01056c.07776-.56366.3147-1.11292.50684-1.1756a.1126.1126,0,0,1,.02692-.00543c.03491-.00232.09418.01422.17114.1297a.62432.62432,0,0,0,.54132.34595.33119.33119,0,0,0,.26093-.21588c.13239-.31995.265-.49756.37946-.49719.11316-.00061.25238.17749.39154.50122.26068.6062.49182,1.31482.69574,1.94a6.22173,6.22173,0,0,0,.89752,1.91687,1.237,1.237,0,0,1-.26892-.15234l-.01379-.02124a6.32733,6.32733,0,0,1-1.08624-1.95575c-.02338-.079-.04547-.15869-.06757-.23859a4.94931,4.94931,0,0,0-.217-.66272,1.58215,1.58215,0,0,0-.28168-.43762c-.06036-.0976-.12195-.16589-.18915-.176-.00787-.00116-.01459.00366-.02222.0036a.20639.20639,0,0,0-.157-.00549.32521.32521,0,0,0-.13824.13782c-.02948.04846-.05695.10156-.08459.15472-.06866.13275-.13361.2583-.22314.28107-.04022.01044-.08783-.0238-.14362-.03516a.91858.91858,0,0,0-.18646-.04187h-.00012c-.31671-.00134-.48621.43384-.52063.51862a3.07524,3.07524,0,0,0-.28571,1.1261,4.924,4.924,0,0,1-.11072.64331,1.98325,1.98325,0,0,1-.73608,1.04358c-.03918.0293-.13519.09058-.23193.14716C48.86743,61.13507,49.2608,59.96625,49.51093,58.15448Zm1.376.78571a.0785.0785,0,0,1-.09454-.04938c-.05-.10852-.10278-.26172-.16089-.40839a4.02674,4.02674,0,0,0,.03644.451.08225.08225,0,0,1-.05145.08923,3.76482,3.76482,0,0,1-.80646.15747,1.6233,1.6233,0,0,1,.17334-.52368.15586.15586,0,0,0,.01343-.02667c.00122-.00311.11792-.30371.3194-.3324l.00751-.00336a.41609.41609,0,0,1,.12677.01477.88866.88866,0,0,0,.13818.00543.30649.30649,0,0,0,.09418.00366c.18939-.04828.28955-.24207.378-.41278.02417-.04694.04828-.09363.07434-.13647.01678-.02777.02429-.03436.02246-.03442.00128.00006.01819.00085.05756.0343a1.19261,1.19261,0,0,1,.29944.438c.02118.04865.03265.1059.0509.15637l.01575.05493.06409.22522A5.73827,5.73827,0,0,1,50.887,58.94019Zm.64789,4.68048a1.48385,1.48385,0,0,1-.30963.13287c-.03723.00977-.07123.00983-.10754.01636.0083-.08008.01593-.18781.022-.36816.00671-.05646.00592-.155.01379-.226.05334.01215.3385.06671.38708.077C51.54486,63.2868,51.53973,63.5061,51.53485,63.62067Zm-.48273.15918c-.03674.00464-.07587.01563-.11084.01685a1.11022,1.11022,0,0,1-.2605-.03961c.006-.05182.01392-.11462.02545-.192.01459-.08228.00128-.16284.02057-.34772l.28674-.05963C51.04083,63.48444,51.04877,63.66956,51.05212,63.77985Zm-.40387-.21484a.82836.82836,0,0,1-.00806.18591,1.16719,1.16719,0,0,1-.13452-.02045c-.06653-.03876-.15228-.1048-.23358-.16467a1.26423,1.26423,0,0,0,.07037-.16821c.04755-.0014.23358-.00269.29114-.00323C50.63885,63.44342,50.64429,63.51294,50.64825,63.565Zm.93134-.06769c.00977-.03943.02252-.09174.03314-.12994.05933.01056.167.01978.23584.02905a1.59772,1.59772,0,0,1-.14185.12848l-.00513.0036q-.04321.031-.08728.058c-.015.00922-.03052.011-.04565.01959A.47258.47258,0,0,1,51.57959,63.49731Zm.76849.938a1.132,1.132,0,0,1-.928.90741,1.62766,1.62766,0,0,1-1.56384-.66486,17.41176,17.41176,0,0,1-.79333-1.77332c-.23456-.57446-.41846-.94574-.56976-1.26654a.457.457,0,0,1,.17352.07379s.55438.72485.81525,1.16669c.01837.03119.03583.07153.05389.10217.092.15649.18042.31342.25769.46307.0141.02728.03156.05432.04736.08014a1.4945,1.4945,0,0,0,.75726.5882,2.38333,2.38333,0,0,0,1.10022-.13458,3.68134,3.68134,0,0,0,.8291-1.08264,6.77234,6.77234,0,0,0,.38544-.69458,1.47637,1.47637,0,0,1,.5932-.61548A8.84889,8.84889,0,0,0,52.34808,64.4353Z" transform="translate(-1.40028 -26.30742)"></path><path d="M54.31556,54.70667a26.90043,26.90043,0,0,0-1.669-2.78433L52.644,51.917c-.16875-.33291-.3737-.63141-.60878-1.098-.12924-.2564-1.61743-3.31039-.85412-5.46811.25356-.71683-.20051-.19245-.50883.80425-.59136,1.91168.87255,4.68338.9603,4.84508l.043.07932a5.72153,5.72153,0,0,1,.2637,1.82644c-.06663.33262.19177.06065.23413-.10539a3.169,3.169,0,0,0,.04056-.86414c.12875.24035.28356.67243.36424.82734.22865.43919.647,1.94433-.23971,2.1572-.00125-.01516-.05474-.5022-.25319-.487s-.309.29832-.4526.44982a1.90724,1.90724,0,0,1-1.80464.333c-.12163-.0456-.29121-.07532-.35-.18506a.94565.94565,0,0,0-.39474-.48314c-.26653-.148-.42519.22-.42049.29121a1.14282,1.14282,0,0,0,.20138.43133.72726.72726,0,0,1-1.05306.00489.9275.9275,0,0,1-.17736-.70447,5.12759,5.12759,0,0,1,.68811-1.98426,1.94028,1.94028,0,0,0,.31239.94656c.08786.1452.39645.33718.21584-.04576a3.481,3.481,0,0,1-.30919-1.02393c-.01846-.0983-.005-.53408-.089-.49247a3.66228,3.66228,0,0,0-.5456.73644,3.95929,3.95929,0,0,0-.36159.7526,11.98546,11.98546,0,0,0-.957,2.56176,7.0317,7.0317,0,0,0-.00095,3.97216,19.66862,19.66862,0,0,1,.73835-5.34948c-.07962,1.24187.917,1.2165,1.05985,1.18875a2.19,2.19,0,0,0,.70069-.38518,2.43478,2.43478,0,0,0,.24649-.21867,1.64133,1.64133,0,0,0,1.94582.37631,1.79343,1.79343,0,0,0,.53428-.38331c.08938-.13431.16327.16044.44545.15808,1.82777-.01528,1.13631-1.80473.793-2.40644l-.00838-.03941c.00762.02624.01891.05969.02468.082.93391,1.7804,2.14516,4.40261,2.106,6.61711C55.15582,60.61441,55.78137,57.48075,54.31556,54.70667Z" transform="translate(-1.40028 -26.30742)"></path><path d="M33.52415,53.11865a1.9329,1.9329,0,0,0,.13726,1.68c.40844.65037.04164.60843-.11051.6707-.15051.0616-.25967.36616-.31963.36809-.61637.01988-.60441-.21431-.6366-1.03621a7.77026,7.77026,0,0,1,.01909-1.60787c.07859-.787.32664-1.7993.4745-1.35082C33.25662,52.35318,33.52415,53.11865,33.52415,53.11865Z" transform="translate(-1.40028 -26.30742)"></path><path d="M30.55035,50.22124c-.52566-.41059-1.04825-.74291-1.06593-.19344a4.73889,4.73889,0,0,0,.35368,2.02445,14.59294,14.59294,0,0,1,.7658,1.53793c.09207.34918.307-.16882-.00072-1.01913a3.873,3.873,0,0,1-.40743-1.39518A1.03181,1.03181,0,0,1,30.55035,50.22124Z" transform="translate(-1.40028 -26.30742)"></path><path d="M60.9948,50.98349a1.19428,1.19428,0,0,1,.13409,1.57771c-.33225.523-.13505.75259.31978.5429s.07982-.50043.49972-1.12411c.15562-.23115-.13883-1.04449-.54672-1.6032a1.65155,1.65155,0,0,0-.67468-.558Z" transform="translate(-1.40028 -26.30742)"></path><path d="M45.33687,49.47034a4.34867,4.34867,0,0,1-3.88205.88572c-.69848-.23855-1.93172-1.043-1.05591-.31046,2.07574,1.73621,4.44307.7994,5.90072-1.28851C46.47345,48.50812,45.879,48.9785,45.33687,49.47034Z" transform="translate(-1.40028 -26.30742)"></path><path d="M53.31866,48.21671c.86222.20652,1.93968-.10037,3.51713-1.15923.48152-.32322,1.07428-.5463.24567.10232-1.92227,1.50471-3.05264,1.95828-4.80882.99616C52.0563,48.03745,52.592,48.04265,53.31866,48.21671Z" transform="translate(-1.40028 -26.30742)"></path><path d="M39.854,48.80293c-.02058.11123-.73144,1.19819-1.42833,1.35318-.17335.0304-.39568.08317-.41667.00207.10321-.09309.65628-.41063.82959-.52707A12.99921,12.99921,0,0,1,39.854,48.80293Z" transform="translate(-1.40028 -26.30742)"></path><path d="M39.96918,48.595s-.102.01636-.22705.03247c-.19482-.11139-.691-.39532-.7738-.44659-.20416-.13458-.53076-.25977-.80939-.407l-.40887-.213c-.13019-.06744-.25336-.12921-.35669-.18573-.053-.02881-.1004-.05341-.14014-.07776a1.18939,1.18939,0,0,1-.1106-.06677c-.0614-.042-.09924-.06378-.09924-.06378s.01251.04169.03925.1109a.5804.5804,0,0,0,.06354.12018.89606.89606,0,0,0,.10492.14563,1.80073,1.80073,0,0,0,.31384.30383,2.93883,2.93883,0,0,0,.41339.26727,3.01587,3.01587,0,0,0,.86108.30322c.092.01727.59009.15039.8407.2179a1.99769,1.99769,0,0,1-.48718.01337,2.991,2.991,0,0,0-1.64087.16559,1.69824,1.69824,0,0,0-.34381.18243,2.60631,2.60631,0,0,0,.38385.0354,5.91312,5.91312,0,0,0,.80756-.03229,6.02368,6.02368,0,0,0,.79767-.13068C39.33838,48.83722,39.96918,48.595,39.96918,48.595Z" transform="translate(-1.40028 -26.30742)"></path><path d="M58.87739,45.95517a1.92537,1.92537,0,0,0-.75721-.02444,2.34224,2.34224,0,0,0,.59994-.31716,2.50959,2.50959,0,0,0,.32912-.29308,1.71338,1.71338,0,0,0,.24363-.32319.939.939,0,0,0,.07863-.152.63611.63611,0,0,0,.04564-.124c.01809-.07073.02592-.1132.02592-.1132s-.03032.02419-.079.07a.99113.99113,0,0,1-.08834.07369c-.03175.02686-.06983.05443-.11239.08655-.08291.063-.5035.36552-.6154.44674-.22391.1647-.47668.30536-.639.45268-.08028.06853-.47446.32379-.49459.33681l-.02468.005a11.624,11.624,0,0,0,1.47528.261,6.43036,6.43036,0,0,0,.90259-.0972A5.18647,5.18647,0,0,0,58.87739,45.95517Z" transform="translate(-1.40028 -26.30742)"></path><path d="M57.63251,46.28209a4.36684,4.36684,0,0,0,.825.86446,1.488,1.488,0,0,0,.54726.18422c.15849.01514.36258.04612.37666-.02308-.09888-.07185-.65765-.437-.82127-.5242A6.97252,6.97252,0,0,0,57.63251,46.28209Z" transform="translate(-1.40028 -26.30742)"></path><path d="M45.62732,47.89056a5.86639,5.86639,0,0,1-1.44725-.3966c-1.30179-.52545-2.06131-.91116-3.45925.58477-.03163.03384.01843.08142.06018.06134a2.93613,2.93613,0,0,1,1.12872-.26947.8403.8403,0,0,0-.03967.13043.79378.79378,0,0,0-.01953.09674.83471.83471,0,0,0,.42267.71655,2.60869,2.60869,0,0,1-.71651-.04178c-.13518-.02575-.4246.01041-.32456.0745a3.69568,3.69568,0,0,0,1.1167.2,3.92229,3.92229,0,0,0,1.68469-.44153c.40411-.1947,1.064-.48785,1.23328-.53955a.19281.19281,0,0,0,.0636-.0318,2.25273,2.25273,0,0,0,.2973.001C45.67969,48.03143,45.7121,47.90532,45.62732,47.89056Zm-1.69812.38959c-.16467.07935-.34528.18359-.52032.25781l.0036-.014a.8231.8231,0,0,0,.13165-.42621.55611.55611,0,0,0-.09707-.32131c.52533.05212,1.27554.1758,1.49929.21279A6.63542,6.63542,0,0,0,43.9292,48.28015Zm-.97462-.13074a.226.226,0,1,1-.226-.226A.226.226,0,0,1,42.95458,48.14941Z" transform="translate(-1.40028 -26.30742)"></path><path d="M46.843,46.29444c-.11815-.27386.26872.03341.55578.4434.49337.70467.40317,2.46888.09953,2.48266A6.84771,6.84771,0,0,0,46.843,46.29444Z" transform="translate(-1.40028 -26.30742)"></path><path d="M56.75024,45.65674c.04614.00421.08179-.05811.03918-.07648a2.8989,2.8989,0,0,0-3.54364.396,3.3656,3.3656,0,0,1-1.18213.93628.04438.04438,0,0,0,.02747.08368,2.60527,2.60527,0,0,0,.43658-.15576c-.00806.00391-.0202.01276-.02753.01569l-.04443.02246a2.76422,2.76422,0,0,1,.83942.13507,4.2832,4.2832,0,0,0,.758.16534,2.10394,2.10394,0,0,0,.68921-.02271,1.886,1.886,0,0,0,.35181-.11591,2.14419,2.14419,0,0,0,.68744-.50079c.16431-.16791-.06134-.1-.19672-.04865-.03046.01154-.18726.07526-.29358.12347a.81951.81951,0,0,0-.18066-.89142A4.17016,4.17016,0,0,1,56.75024,45.65674Zm-3.84155.99524c.13489-.07446.65271-.39276.77765-.47632a.80276.80276,0,0,0-.02759.13672.83766.83766,0,0,0,.27545.61731C53.65417,46.85388,53.18439,46.71161,52.90869,46.652Zm1.833-.39055a.226.226,0,1,1-.226-.226A.226.226,0,0,1,54.74172,46.26143Z" transform="translate(-1.40028 -26.30742)"></path><path d="M52.30078,46.4799c-.44469.43379-.26575.02718-.02839-.24672a17.95629,17.95629,0,0,1,1.32525-1.46267,3.68668,3.68668,0,0,1,1.16915-.74873,1.71553,1.71553,0,0,1,2.2451,1.0483c.38657.75645.227,1.08873.09969.82429-.13342-.277-.14939-.47439-.29156-.73977-.50726-.94661-1.75121-1.4832-2.99036-.2159C53.328,45.45172,52.57294,46.21442,52.30078,46.4799Z" transform="translate(-1.40028 -26.30742)"></path><path d="M40.15949,48.497c-.11505.338-.29066.65207-.2893.24032a5.9666,5.9666,0,0,1,.864-2.07522c.09526-.154.5388-.88605,1.22469-.75065a11.48939,11.48939,0,0,1,3.97427,1.635c.20281.21762-.10523.1515-.38566.01344a14.59672,14.59672,0,0,0-3.52-1.35259.94347.94347,0,0,0-.99652.47045A11.26615,11.26615,0,0,0,40.15949,48.497Z" transform="translate(-1.40028 -26.30742)"></path><path d="M46.34641,42.86833c-.14244-.54481-.15025.08492-.20122.49817a6.171,6.171,0,0,1-.20264,1.42448,1.12789,1.12789,0,0,0,.06855-.35138c-.0145-.42236-.4943-.6898-1.467-.81781-.18932-.02489-.4057-.05716-.63387-.09109a5.59034,5.59034,0,0,0-2.45047-.11006A3.26808,3.26808,0,0,1,40.1985,43.93a1.73359,1.73359,0,0,0-1.12609.491,2.15317,2.15317,0,0,0-.52362.635,3.73083,3.73083,0,0,1-.31053.45227,2.16373,2.16373,0,0,0-.62637,1.42376.67288.67288,0,0,0,1.25462.39755,1.931,1.931,0,0,0,.15721.18356l.16486-.17526a1.59157,1.59157,0,0,1-.16132-.18409,2.72365,2.72365,0,0,0,.2448-.38161c.03352-.06247.06325-.11094.094-.16305.02123.0099.045.01287.06608.02314a.12031.12031,0,0,0,.121-.20721c-.01876-.01291-.03309-.0316-.0511-.04564.01161-.01939.02667-.04312.03686-.06118.05026-.08887.08778-.154.12382-.20725.08729.02027.17147.0528.25981.06784a.12035.12035,0,0,0,.09957-.209l-.072-.0633c.07663-.0234.17259-.04623.30731-.07651.08472-.019.18229-.041.29534-.06767l.09752-.0235c.0454.02018.09615.03975.1374.0602a.11988.11988,0,0,0,.14159-.02593c.02626-.02838.01772-.06736.01109-.1039.19974-.04863.39017-.09462.5761-.13478.02931.02128.06337.05273.091.07028a.12044.12044,0,0,0,.16054-.029.11727.11727,0,0,0,.02092-.08982,5.04378,5.04378,0,0,1,.80905-.08592c.0589.031.11747.06663.17659.09348a.11976.11976,0,0,0,.13851-.02845c.014-.01532.00161-.03664.00627-.05585a4.21459,4.21459,0,0,1,.46649.04182,5.5724,5.5724,0,0,1,1.67787.56207c.061.01824.19.076.22747.02437.00921-.01271.01789-.02852.02709-.04154.01943.02865.05182.02949.09786-.02077.0664-.07251.12136-.1508.18043-.227l.02284.03567.02743.04291.20277-.12941-.02724-.04279c-.0235-.03687-.04784-.07366-.07183-.11052A3.643,3.643,0,0,0,46.34641,42.86833Zm-1.83373.992c.81348.107,1.24844.31012,1.258.58748a1.98941,1.98941,0,0,1-.25352.74309,4.027,4.027,0,0,0-1.287-1.37119C44.32383,43.83327,44.42826,43.84929,44.51268,43.86038Zm-5.44528,2.7852a3.01058,3.01058,0,0,1-.19693.28183,3.93,3.93,0,0,1-.32108-.60384,4.00285,4.00285,0,0,1,.58791.20553C39.11384,46.56819,39.0943,46.60208,39.0674,46.64558Zm.262-.4459-.00766.01339a1.25338,1.25338,0,0,1-.15933-.23271c.08421.03.17332.04266.25913.06762C39.392,46.09633,39.36574,46.13546,39.32941,46.19967Zm.87516-.60449a2.423,2.423,0,0,0-.45512.13478l-.38514-.33873a3.85451,3.85451,0,0,1,.8854.1936Zm.65065-.21356a.57085.57085,0,0,0-.08274.03423,8.55087,8.55087,0,0,0-.72948-.68258,4.35465,4.35465,0,0,1,1.15918.56883C41.08711,45.3286,40.97495,45.35248,40.85521,45.38163Zm.66209-.15056c-.03083-.0227-.05085-.042-.0842-.06533-.11489-.1-.2369-.21368-.35672-.32541-.14624-.1363-.29545-.27536-.43493-.39241a3.05482,3.05482,0,0,1,1.35843.60016c.04427.02822.09.05548.13485.08374C41.92831,45.15461,41.72423,45.189,41.5173,45.23107Zm.61181-.386a2.547,2.547,0,0,0-1.83779-.60935.12028.12028,0,0,0-.03938.21913,2.36311,2.36311,0,0,1,.24561.18632,1.76456,1.76456,0,0,0-.86909-.18452.12033.12033,0,0,0-.04859.21933,8.1521,8.1521,0,0,1,.82124.70306,3.61561,3.61561,0,0,0-1.367-.22959.12031.12031,0,0,0-.07.21029l.54434.47873a4.29319,4.29319,0,0,1-.51028-.18053.12031.12031,0,0,0-.16338.14192,1.45734,1.45734,0,0,0,.17847.40262,4.25156,4.25156,0,0,0-.62676-.15607.12173.12173,0,0,0-.1096.03815.12028.12028,0,0,0-.02641.113,3.71321,3.71321,0,0,0,.455.91278.69958.69958,0,0,1-.337.19326.46817.46817,0,0,1-.05142.00354.66287.66287,0,0,1-.1001-.00359.47751.47751,0,0,1-.06764-.01178.62148.62148,0,0,1-.13717-.06045.43644.43644,0,0,1-.16111-.32547,1.84645,1.84645,0,0,1,.57356-1.24545,3.97756,3.97756,0,0,0,.32951-.47918,1.92818,1.92818,0,0,1,.46908-.57277,1.51037,1.51037,0,0,1,.98347-.438,2.89152,2.89152,0,0,0,1.09271-.38343,3.95951,3.95951,0,0,0,.90879,1.09885l.02425.02494Zm1.3203.32036a4.77981,4.77981,0,0,0-.70133-.06361c-.09218-.10041-.21521-.22743-.36733-.3838-.23632-.24283-.59494-.61147-.7605-.82833A3.21754,3.21754,0,0,1,43.498,45.1749l.00138.00111C43.4818,45.173,43.46717,45.16839,43.44942,45.16546Zm.21789.046a.1179.1179,0,0,0,.04352-.14843c-.09093-.18827-.23882-.43487-.38179-.67333-.08732-.14553-.1764-.29411-.252-.42855a3.05386,3.05386,0,0,1,.63986.74215,4.80028,4.80028,0,0,0,.5169.64359C44.05956,45.29663,43.87116,45.252,43.66731,45.21141Zm.24575-.64743c-.35361-.49817-.68847-.968-1.0859-.89441a.12021.12021,0,0,0-.0863.1706c.062.12844.15052.28394.246.44556a2.91486,2.91486,0,0,0-1.44481-.6345l.04418-.02582a6.97411,6.97411,0,0,1,2.28855.14328l.05628.00808c-.02906.01266-.06336.01867-.07512.0496a.1203.1203,0,0,0,.03649.13591,2.83914,2.83914,0,0,1,.402.91106c.03642.10923.07094.21284.10452.30659A4.87578,4.87578,0,0,1,43.91306,44.564Zm1.303,1.1561a4.1778,4.1778,0,0,0-.454-.19859.11691.11691,0,0,0,.0006-.107,3.65235,3.65235,0,0,1-.24-.61731,7.05848,7.05848,0,0,0-.25358-.68494,5.44759,5.44759,0,0,1,1.121,1.31826C45.33472,45.5276,45.27835,45.6253,45.216,45.72008Z" transform="translate(-1.40028 -26.30742)"></path><path d="M57.99245,42.36911a.34254.34254,0,0,0-.138-.20669c-.01737-.01137-.03762-.00188-.05607-.00913a1.66177,1.66177,0,0,0-.52141-.40159c-.00594-.01989-.003-.04-.01018-.05987a.12035.12035,0,0,0-.20065-.04172c-.01237.01313-.02212.02818-.03437.04136a1.41652,1.41652,0,0,0-.25112.00184l.0015-.00445a.12069.12069,0,0,0-.02117-.11494.11874.11874,0,0,0-.109-.04255,1.26442,1.26442,0,0,0-.517.19767,2.99343,2.99343,0,0,1-.40616-.02428c-.03344-.00465-.05714-.00476-.08922-.00878l.01621-.11482a.12024.12024,0,0,0-.19351-.11128c-.07261.05715-.13468.12567-.20183.18886a4.70906,4.70906,0,0,0-1.17.0789,7.09049,7.09049,0,0,1-1.00056.10948,2.14765,2.14765,0,0,0-1.88373.74734l-.00794.01059a1.79867,1.79867,0,0,0-.28836.96615,3.84784,3.84784,0,0,1-.58164-1.6237c-.02345-.2775-.25768-.74935-.27849-.11917a3.31207,3.31207,0,0,0,1.00488,2.389l.00155.0041a.64821.64821,0,0,0,.832.36827.20206.20206,0,0,0,.02472-.00586c.65782-.23066,1.75483-.5812,2.55935-.83473a4.45946,4.45946,0,0,1,1.89413-.22926l.09017.00454a1.00977,1.00977,0,0,1,.6264.409l-.08805.18172.21644.105.04049-.08359c.09991.12964.19755.26443.29084.3973a5.19428,5.19428,0,0,0,.43486.5664.42754.42754,0,0,0,.28381.15875.20071.20071,0,0,0,.07314-.01662c.20074-.0872.19493-.43957.16143-1.00949-.00507-.08368-.00968-.16267-.012-.23111a1.59208,1.59208,0,0,1,.02114-.27891C58.5488,43.40214,58.58669,43.06684,57.99245,42.36911Zm-.66233-.30447a1.578,1.578,0,0,1,.176.143c-.02.01974-.04.04027-.054.057l-.17482.20894A1.51539,1.51539,0,0,0,57.33012,42.06463Zm-.63368-.121c.04988-.00574.09069-.00708.13442-.01054-.073.08825-.15239.172-.2197.26423Zm-1.09057-.00945c.0322.004.05615.00418.08977.00883.0667.00925.10923.00468.16976.01a1.88321,1.88321,0,0,0-.1863.21605,2.47776,2.47776,0,0,0-.13623.21049Zm-1.47633.04093a4.92358,4.92358,0,0,1,.89721-.08132,3.241,3.241,0,0,0-.28161.36962.35746.35746,0,0,0-.0726-.18292c-.15052-.18446-.41781-.10737-.60219.04193a2.59063,2.59063,0,0,0-.46979.49884,4.35432,4.35432,0,0,0-.00028-.48844.11683.11683,0,0,0-.05582-.08C53.76257,42.03019,53.95951,42.00309,54.12954,41.97514Zm-2.66261.76554c.4151-.498.55346-.6161,1.63126-.65311.10925-.00375.1915-.01464.2867-.02224a4.05824,4.05824,0,0,0-.88719,1.04907l-.00395-.03315a1.67441,1.67441,0,0,1,.00255-.58729.12029.12029,0,0,0-.20682-.10588A11.2923,11.2923,0,0,0,51.24424,43.743,1.47491,1.47491,0,0,1,51.46693,42.74068Zm1.67406,1.07c-.44172.14415-.86722.2861-1.208.40534a.91746.91746,0,0,1-.49382-.06579l-.00381-.0025a.22381.22381,0,0,1-.0825-.07271c-.00653-.01052-.008-.02623-.01411-.03732a11.81611,11.81611,0,0,1,.89009-1.21541c.00341.103.015.19827.02589.288a1.32335,1.32335,0,0,1-.00126.49331q-.04495.10762-.08376.218a.12028.12028,0,0,0,.22026.09528,1.15413,1.15413,0,0,0,.09261-.23751,3.82152,3.82152,0,0,1,.88392-1.27749,4.19944,4.19944,0,0,1-.08042.79351,2.577,2.577,0,0,0-.15463.57278A.11152.11152,0,0,0,53.141,43.81069Zm2.04455-.58834a5.41324,5.41324,0,0,0-.80816.192c-.31169.09822-.65033.20671-.98724.31581a4.37419,4.37419,0,0,0,.12763-.46626,2.39543,2.39543,0,0,1,.70411-.95441c.093-.07544.22428-.12551.26418-.07692a.22705.22705,0,0,1,.02441.11685,1.81162,1.81162,0,0,1-.044.45668,3.133,3.133,0,0,0-.11725.35238.12033.12033,0,0,0,.22615.08012,2.04466,2.04466,0,0,0,.12114-.36,3.00044,3.00044,0,0,1,.64353-.97035l.02623.00258-.18355,1.29918C55.182,43.21441,55.1857,43.21789,55.18554,43.22235Zm.553-.053c-.09217.00317-.18937.00925-.292.01913a3.681,3.681,0,0,1,.4274-.87792,1.487,1.487,0,0,1,.34522-.33651c.08211-.00093.14765-.00409.21648-.00945l-.404,1.20171C55.91867,43.16633,55.80992,43.16689,55.73855,43.16934Zm1.49382.45584a1.08157,1.08157,0,0,0-.71589-.4558l-.19067-.00188a5.31108,5.31108,0,0,1,.76151-1.18235,2.17365,2.17365,0,0,1-.32981,1.11427.12035.12035,0,0,0,.19953.13184l.67956-.81207a.44116.44116,0,0,1,.042-.03955c.0208.02249.03462.03179.05672.0565l.02579.03063a.5472.5472,0,0,1-.06445.20033Zm1.03446.06512a1.79349,1.79349,0,0,0-.0234.31972c.00241.07015.00727.15121.01223.237a3.48746,3.48746,0,0,1,.004.6813.23772.23772,0,0,1-.01373.0467,1.36391,1.36391,0,0,1-.10251-.10769,4.48853,4.48853,0,0,1-.37555-.50584c-.11879-.16906-.24128-.35356-.36968-.52681l.515-1.06261c.01129-.02329.0222-.05432.03409-.08148A1.11083,1.11083,0,0,1,58.26683,43.6903Z" transform="translate(-1.40028 -26.30742)"></path><path d="M39.33258,41.37316c.85065.84712,5.45209,1.83618,5.94153,1.8486.09465.0024.22694-.15561-.33475-.35448-1.16994-.41424-2.94942-.56758-4.97622-1.37187A3.17875,3.17875,0,0,0,39.33258,41.37316Z" transform="translate(-1.40028 -26.30742)"></path><path d="M56.7446,39.813c-.80867.88729-4.76283,1.579-5.232,1.66122-.22743.03987-.18976-.13926.28136-.33462,1.06847-.44307,2.80812-.55435,4.324-1.18344A1.67348,1.67348,0,0,1,56.7446,39.813Z" transform="translate(-1.40028 -26.30742)"></path><path d="M94.78516,85.48828l.63379-2.2959a.74541.74541,0,0,1,.17871-.30957c.22363-.25488,2.5918-2.8457,2.5918-2.8457.09375-.09766.918-.97852.88867-1.67969a.739.739,0,0,0-.249-.53613h-.001a1.1333,1.1333,0,0,0-1.6543.125c-.18164.1582-1.9043,1.85449-2.77832,2.71582.457-.94727,1.53516-3.14258,2.15625-4.40332a2.77469,2.77469,0,0,0,.207-1.72852.73236.73236,0,0,0-.41113-.40723,1.24276,1.24276,0,0,0-1.61719.78809c-.21191.39941-2.00488,3.69922-2.49512,4.60059.22852-1.14941,1.0957-5.34473,1.10059-5.374a2.07523,2.07523,0,0,0-.10547-1.50586.99393.99393,0,0,0-.72559-.4375,1.2496,1.2496,0,0,0-.97754.22461,1.32856,1.32856,0,0,0-.458.82031l-1.208,5.77148a.872.872,0,0,1-.123.08887l-.00293-.02344c-.05273-.59863-.63965-5.33008-.668-5.5498a1.07156,1.07156,0,0,0-1.2666-.84375,1.13412,1.13412,0,0,0-.94238,1.30078l.32715,5.35645a3.09661,3.09661,0,0,1-.05371.80566,7.17082,7.17082,0,0,1-.32739.91986c-.8067-2.20923-2.55609-4.54456-7.19348-6.75281-4.17828-1.98975-16.67249-4.88641-20.97321-7.39.13574-.32806.27032-.65741.38531-1.00305.33087-.99469.77148-2.44745,1.15338-4.12628a1.74058,1.74058,0,0,0,.91144-.65363c.07715-.09375.0957-.22949.13184-.55664.00586-.05469.01367-.123.02246-.18945l.00781.00586c.208.17285.42578.35352.64551.21875a2.05252,2.05252,0,0,0,.42578-.38086,2.36689,2.36689,0,0,1,.51465-.4502.25022.25022,0,0,0,.11621-.26953,21.85514,21.85514,0,0,1-.3252-2.39844c-.05554-.55841-.11072-1.082-.18036-1.54858a3.26948,3.26948,0,0,0,.34528-1.035,8.5178,8.5178,0,0,0-.164-4.0368c-.09-.41144-.18689-.99969-.28125-1.5415.31726-.16888.68427-.37378,1.14069-.60925a.24025.24025,0,0,0,.09155-.34436c-.25653-.39594-2.087-6.24719-1.35968-9.09576.01447-.00562.033-.00909.04663-.015A2.94324,2.94324,0,0,0,63.542,37.51294l.00281-.00488a3.16714,3.16714,0,0,1,.5896-.86011.62136.62136,0,0,1,.201-.07715c.86621-.27753.8902-1.48785.88055-1.76874a.66769.66769,0,0,0-.51221-.70752c-.942-.35046-1.95557-.58551-2.91077-.89825l-.08575-.02789a2.21865,2.21865,0,0,1-1.48663-1.05c-.08191-.11035-.16632-.2243-.257-.33368a10.77656,10.77656,0,0,0-3.12067-2.37341,15.6147,15.6147,0,0,1-2.26251-1.40875c-1.67474-1.34216-3.13867-1.415-5.69873-1.64862-2.88635-.26343-10.13245.52643-14.94824,4.1026-.74689.55463-1.46619,1.11066-2.15631,1.7-.08673.03778-.13306.07538-.13037.11078-.15454.13434-.31866.25793-.46844.39819a12.19911,12.19911,0,0,0-1.40955,1.60815c-.19806.05927-.23059.14374-.17236.23309-.13281.18536-.26312.37207-.38574.55927a5.20262,5.20262,0,0,0-.64075,1.6358l-.04584.015c-.32623.11639-.23.22382-.02881.28387-.05182.23706-.09906.478-.14636.72009-.04669.37231-.101.7403-.137.99561-.17413.05408-.34955.10394-.51965.17047-.44452.17389-.2511.89941.1994.72321.09576-.03748.19543-.06311.2926-.096.00116.43134-.003,1.09332-.03009,1.88922-.09015.06372-.18176.12683-.26672.19275-.15051.11676.01868.21545.249.26312-.02045.47321-.04932.97778-.08972,1.49829a1.87323,1.87323,0,0,0-.42218.4057c-.08447.113.12018.22052.36371.26794a23.65174,23.65174,0,0,1-.40155,2.71625.8284.8284,0,0,1-.269.1095c-.30347.05621-.09235.20605.17633.30591a8.699,8.699,0,0,1-.40369,1.25073.27928.27928,0,0,0,.0116.30774,2.19634,2.19634,0,0,0,1.40228.76215,2.58948,2.58948,0,0,0-.07568,1.61517,32.05964,32.05964,0,0,0,1.5047,5.31439A5.16089,5.16089,0,0,0,31.572,58.92493a2.34236,2.34236,0,0,0,.58295.28693c.16071.62628.66089,2.554,1.17755,4.27545a.17048.17048,0,0,0,.082.10547.16179.16179,0,0,0,.13135.0127c.07617.002.28906.21387.39111.31641.22021.21973.39453.39844.58887.335a.27653.27653,0,0,0,.17969-.18457.39229.39229,0,0,0,.061-.2959c.07959.07324.16553.1543.23145.2168a2.35066,2.35066,0,0,0,.40088.34766,2.50233,2.50233,0,0,0,.82666.2406,16.68283,16.68283,0,0,0,1.43921,2.21088C34.90186,68.577,18.83221,73.13885,18.2644,73.366a13.144,13.144,0,0,0-4.98706,3.62146c-.00092-.15289.0083-.25995.00879-.26483l.36963-5.33691a1.13686,1.13686,0,0,0-.93066-1.31934,1.079,1.079,0,0,0-1.27686.85156c-.02637.20117-.65332,4.92676-.71094,5.52539l-.00244.02344a.88442.88442,0,0,1-.123-.08984L9.45605,70.62012a1.34893,1.34893,0,0,0-.45557-.84863,1.25328,1.25328,0,0,0-.9751-.23242.99435.99435,0,0,0-.729.43164,2.05054,2.05054,0,0,0-.12207,1.48535c.00928.0459.84229,4.25586,1.06055,5.40332-.481-.90234-2.249-4.22168-2.45752-4.62207A1.24251,1.24251,0,0,0,4.166,71.43555a.72459.72459,0,0,0-.41406.40332A2.78528,2.78528,0,0,0,3.95117,73.582c.60547,1.25586,1.665,3.459,2.11377,4.41016-.86719-.86914-2.58154-2.585-2.77783-2.76074a1.12493,1.12493,0,0,0-1.63184-.11816.73749.73749,0,0,0-.25391.5332A3.04,3.04,0,0,0,2.27344,77.332c.07422.083,2.35254,2.61719,2.56836,2.86719a.73173.73173,0,0,1,.18506.34668l.61523,2.291c.9707,2.60059,2.35107,3.4209,2.80127,3.627L8.631,87.50848l.1543.85907c-.15137.10651-.30066.21344-.45056.32025-1.75739,1.25232-3.39038,2.50226-4.26154,3.17938l-.15039.11621,1.52972,3.72339.19812.48218c-.5061.3916-.89209.61359-1.07892.76288a16.48675,16.48675,0,0,0,1.035,2.82306c.04553.08429.09.2251.13806.2251H19.58661c-.15149,0-.32745-.81055-.51709-1.34283-.83362-2.33978-2.53687-5.88428-3.019-9.01483-.0448.0152-.59064.2002-.90546.33521-.15021.06439-.305.135-.46307.21008A36.51213,36.51213,0,0,0,10.11279,92.929c-.152.10382-.30188.20685-.45209.31116-1.11548.77466-2.15723,1.54163-3.02307,2.19568-.19891.15027-.39832.301-.57611.43713l-.19836-.48279L4.53027,92.14551c1.19055-.92175,2.41736-1.82831,3.60809-2.68207.24792-.1778.50385-.36847.74695-.53967.15186-.10693.30188-.21161.45123-.31549a42.16906,42.16906,0,0,1,4.2868-2.70239q.249-.12735.46045-.22052a1.64444,1.64444,0,0,1,.86346-.21857,25.18872,25.18872,0,0,1,1.0094,3.69476c.03595.15527.10693.46387.109.47247.04688-.0061.07166.09521.07166.09521s1.87048,4.6897,3.16907,7.764L20,93.95044V99.6886c0,.13159.07727.3114.11749.3114H38.17084c-.23358-7-.03857-17.68585.01276-25.26318A56.12542,56.12542,0,0,0,39.71265,80.735a.3959.3959,0,0,0,.33154.265h.0166a.39174.39174,0,0,0,.33447-.224c.72742-1.43671,3.01044-2.9621,5.00067-4.2583.49072.7121,1.41107,1.99365,1.41107,1.99365S44.81525,92,44.01624,100h8.95538c-.3349-8-1.48273-21.5423-1.48273-21.5423a23.51634,23.51634,0,0,0,1.9787-2.23822,17.61955,17.61955,0,0,1,3.58636,3.786c.19409.32635.59064.3064.67773.03564a51.43285,51.43285,0,0,0,1.07446-6.89044C58.82745,80.84253,58.19647,93,57.54291,100H78.07928l.10211-5.50659L78.93066,100h2.34253c1.17993-2.92187,2.98914-8.19879,3.02362-8.28839.06061-.15759.13049-.27686.12982-.28265.13745-1.04443.33093-2.4234.382-2.97.20526-.15027.71552-.11737,1.44543.05731.15082.03607.31494.08081.48383.12872.506.14343,1.09143.33954,1.73352.57617.83026.306,1.75543.681,2.73718,1.10614.15668.06787.31177.13434.47107.20465,1.52594.67334,3.162,1.45325,4.7569,2.26782l-1.19385,3.847c-.22717-.14874-.45648-.29944-.7085-.4671-.98425-.65436-2.16888-1.43634-3.50647-2.18427-.15027-.084-.30841-.16534-.46271-.24823q-.72894-.39175-1.51318-.75208a20.63929,20.63929,0,0,0-3.13306-1.1521c-.1615-.04443-.31738-.09882-.48114-.13885-.326-.07965-.66345-.13287-.99792-.19318l-.02338-.00427.00891-.0675a62.22276,62.22276,0,0,1-2.446,8.6441L95.722,100c.22449-1,.40881-1.9306.51819-2.751-.168-.09717-.36163-.20935-.552-.32977l-.00806.00085,1.29639-4.17694a.24969.24969,0,0,0-.125-.29443c-.77515-.39783-2.84052-1.43646-5.07733-2.4201l.17206-.91376C92.39844,88.91174,93.78613,88.10156,94.78516,85.48828ZM18.248,76.6748a.49866.49866,0,0,1-.25928.4043,4.28566,4.28566,0,0,0-1.0376,1.15723,7.41056,7.41056,0,0,0-1.03363,2.28607c-.0578.24414-.097.45441-.12494.61157l-.02637.14587a5.82224,5.82224,0,0,1-1.19159,2.37744c-.696.68317-1.04028,1.0481-1.04028,1.0481a.25049.25049,0,0,0-.05988.23425l.116.44348c-.02631.01294-.05823.03253-.085.046l.00006.00031-.02179.01141a35.16438,35.16438,0,0,0-4.127,2.62085L9.341,87.98029c-.035.02417-.06952.04663-.10449.07092l-.31183-1.73566-.01355-.07532a.25216.25216,0,0,0-.16846-.19336c-.01562-.00586-1.5752-.55371-2.62451-3.3623L5.51758,80.458c-.00079-.00891-.00452-.03064-.0094-.05426a1.22419,1.22419,0,0,0-.286-.52875c-.22168-.25684-2.57861-2.87891-2.57861-2.87891l-.00391-.00488a2.58836,2.58836,0,0,1-.73755-1.31348l-.00122-.00586a.23853.23853,0,0,1,.08252-.18164c.394-.34082.67285-.15039.99316.13477.18018.16113,2.19043,2.17383,3.228,3.21582a.25563.25563,0,0,0,.16309.07324.42054.42054,0,0,0,.35352-.166A.39373.39373,0,0,0,6.783,78.5517a.64424.64424,0,0,0-.054-.31439c-.146-.34766-2.23877-4.6875-2.32178-4.85937a2.30688,2.30688,0,0,1-.1958-1.3418c.01379-.03162.04169-.04089.06122-.06189.02264-.02441.038-.05878.07111-.0719.42969-.16016.688-.01465.99023.56543.2417.46484,2.57959,4.85254,2.57959,4.85254a.23815.23815,0,0,0,.05566.07031c.10907.09692.38678.30292.62781.17316l.00549-.00128c.16064-.09082.21729-.27832.16748-.55859-.10352-.584-1.06445-5.43848-1.10986-5.66406a1.59067,1.59067,0,0,1,.05322-1.09277.47267.47267,0,0,1,.28693-.18433.599.599,0,0,1,.08856-.02759.787.787,0,0,1,.59668.124.85973.85973,0,0,1,.27637.53418l1.17529,5.85938a.25006.25006,0,0,0,.06543.125,1.10368,1.10368,0,0,0,.47412.29907.434.434,0,0,0,.25342-.0061c.12207-.042.27393-.16016.30518-.47949.05615-.58984.70215-5.458.70557-5.4873a.577.577,0,0,1,.7077-.44336.74067.74067,0,0,1,.07922.02356c.47534.13245.43774.679.42987.75476l-.37012,5.34375a3.84543,3.84543,0,0,0,.03741.83936c.00665.04.00909.07867.01776.11865a3.76806,3.76806,0,0,0,.11084.37445c.10669.29773.24414.63007.33429.8396l-.01306.00531.0152.03748q-.301.10547-.56543.22168a5.02745,5.02745,0,0,0-1.33545.81445c-.07281.06207-.12152.12683-.1861.19-.07251.07092-.14624.14154-.209.21338a3.17582,3.17582,0,0,0-.78644,1.674,2.78367,2.78367,0,0,0,.01312.89728.2354.2354,0,0,0,.25049.18848c.01166-.00037.01953-.01007.03082-.012a.24485.24485,0,0,0,.20648-.19208,1.41459,1.41459,0,0,0-.00635-.35449,1.3464,1.3464,0,0,1-.00879-.248,2.95017,2.95017,0,0,1,.88721-1.83966c.03717-.03674.0705-.0799.10889-.11444a4.91873,4.91873,0,0,1,1.32227-.7959c.20068-.082.38379-.14355.53223-.19238l.11084.15625.00537.00684.05566.07715a.247.247,0,0,0,.24658.10059c.09326-.0166.14941-.02246.1543-.02246a.24979.24979,0,0,0,.2124-.165,4.6881,4.6881,0,0,1,3.32324-3.292.90792.90792,0,0,1,.55566.23438l.00671.01367A.26082.26082,0,0,1,18.248,76.6748Zm42.90277-18.2356a7.2058,7.2058,0,0,0-.25006,1.355c-.10541.10486-.13586.32178-.1781.70331a1.61084,1.61084,0,0,0-.01953.30646,1.60583,1.60583,0,0,1-.40039.38348,32.6996,32.6996,0,0,0,.678-5.12012c.068.0246.14038-.06732.21661-.06732h.01A6.612,6.612,0,0,1,61.15082,58.43921Zm.47107,1.61853c-.01788-.01471-.038-.03-.05255-.04211a1.34537,1.34537,0,0,0-.31854-.21655,10.12578,10.12578,0,0,1,.27167-1.2829,6.274,6.274,0,0,0,.016-2.28351,1.25424,1.25424,0,0,0,.1604-.033A12.11244,12.11244,0,0,1,61.62189,60.05774Zm.36432-.19244c.05963-.74078.17664-1.4541.2005-2.169.06494.619.13538,1.23407.241,1.76074A3.05689,3.05689,0,0,0,61.98621,59.8653Zm.01453-3.80884.00494-.0036.00684.05164C62.00793,56.08844,62.00421,56.07239,62.00073,56.05646ZM63.06,48.02124a3.1578,3.1578,0,0,1-2.486.89655.87475.87475,0,0,1-.49048-.457c.319-.42712.3847-.67865.38458-1.83466,0-.15662-.01288-.35693-.03259-.54358.00189-.00049-.01965-.11707-.0528-.28931.045.08295.08636.16327.12225.22925.18909.34741.35706.70679.57458,1.038a1.87606,1.87606,0,0,0,1.821.95892.4804.4804,0,0,0,.13983-.03864C63.04626,47.99127,63.05457,48.01233,63.06,48.02124Zm-.63513-1.69641c.17664.55072.36249,1.0863.50354,1.42133a.45143.45143,0,0,0-.05353-.00549c-.74286.06183-1.20862-.91248-1.49475-1.45441a1.8974,1.8974,0,0,0-1.02325-1.051.52558.52558,0,0,0-.08722-.01752c-.1167-.5863-.25934-1.28308-.30615-1.46234.04773.02191.09363.042.12927.05621a3.2746,3.2746,0,0,1,.57025.61554c.209.27161.40546.55347.62848.814a2.58675,2.58675,0,0,0,1.0412.77618C62.38513,46.19659,62.423,46.32434,62.42487,46.32483Zm-.21448-.72791a4.28418,4.28418,0,0,1-.45166-.51617c-.22253-.27985-.42407-.57611-.6524-.85138a1.76711,1.76711,0,0,0-1.21167-.73346c-.20123-.74707-.40839-1.4231-.53528-1.83344l-.02856-.0946c.54163.17554.935,1.14948,1.25391,1.55914a2.50733,2.50733,0,0,0,1.23822.89026c.02319.14374.04071.28259.06714.429.00854.04712.02728.12366.04565.1991C61.99542,44.85272,62.10809,45.24384,62.21039,45.59692Zm-.49664-6.561a8.58608,8.58608,0,0,0-.16724,1.65509c-.006.35895.00787.75073.03119,1.15564-.37988-.39624-.60577-1.022-.94867-1.40253a2.17232,2.17232,0,0,0-1.77148-.66064c-.02429-.1098-.04517-.21167-.06085-.30029-.01538-.08673-.02594-.16077-.03027-.21851.10614.01062.21558.02954.3197.035a14.29906,14.29906,0,0,0,2.2948-.22217c.008-.001.15192-.01318.33282-.04224l-.00012.00067Zm-.10339,3.309c.03632.42944.09363.88263.16144,1.34552a4.688,4.688,0,0,1-1.176-1.45782,2.0346,2.0346,0,0,0-1.26947-.96387.45952.45952,0,0,0-.08319-.00073c-.0365-.1275-.07629-.269-.118-.422-.06836-.25085-.13879-.52087-.19983-.77264C60.31262,40.0238,60.44794,41.868,61.61035,42.34491ZM56.45813,30.14478a16.86722,16.86722,0,0,1,2.9325,2.30835,9.64443,9.64443,0,0,0,2.0625,1.375s.169.05231.415.13037a11.3151,11.3151,0,0,1-6.74261-4.60986A10.19016,10.19016,0,0,1,56.45813,30.14478ZM53.7951,28.6c2.01166,3.19965,5.93768,6.01971,9.81757,5.94452.11963.04352.23535.08643.34045.12732.78339.30463.5152.80841.03058,1.28522-3.62512-.58929-7.28052-1.72406-9.6427-4.6947A18.38233,18.38233,0,0,0,50.93909,27.519,11.24262,11.24262,0,0,1,53.7951,28.6Zm-4.21051-1.332c2.852,1.50537,3.99731,4.95361,6.78687,6.62964a20.83479,20.83479,0,0,0,7.23083,2.40393c-.10309.08514-.2066.16766-.30542.2453a2.30083,2.30083,0,0,0-.4967.55115,21.6635,21.6635,0,0,1-8.02332-2.51392c-2.67529-1.38007-3.81689-3.491-5.84125-5.49536a7.60368,7.60368,0,0,0-3.57684-1.877A17.87632,17.87632,0,0,1,49.58459,27.268Zm-5.65869.13678a6.49367,6.49367,0,0,1,4.62653,2.2226c.66974.78876,1.19147,1.67041,1.9115,2.42334a14.08368,14.08368,0,0,0,3.777,2.76874,23.78175,23.78175,0,0,0,8.30829,2.70294,1.32118,1.32118,0,0,1-.21167.36072,3.13028,3.13028,0,0,1-1.369.47485.79394.79394,0,0,0-.20239-.07312,32.88,32.88,0,0,1-8.41492-2.41528c-2.62292-1.2876-4.26337-3.464-6.38159-5.36151A9.22571,9.22571,0,0,0,41.007,28.09467,23.82806,23.82806,0,0,1,43.9259,27.40479Zm-4.66382,1.28583c5.1181-1.09973,8.13153,5.05652,12.1875,7.21252a29.29584,29.29584,0,0,0,8.12958,2.57074c-.9978.02545-1.87585-.04364-1.98047-.01941-.11066.02557-.90637.10846-.98151.11224-3.85175.19464-6.56335-.60419-9.36066-3.19556a26.54,26.54,0,0,0-4.41467-3.45581A12.8161,12.8161,0,0,0,36.4444,29.9502,28.67157,28.67157,0,0,1,39.26208,28.69061Zm-3.61316,1.68951c5.47418-.45892,8.64063,3.904,12.59393,6.82666a10.10792,10.10792,0,0,0,6.02075,1.796c-1.333.2063-2.56958.3905-2.64734.39276q-.45044.01328-.86328.0155c-6.03381-1.68945-10.97723-8.49976-17.46759-7.60663C34.073,31.2771,34.86169,30.81226,35.64893,30.38013ZM32.53259,32.3963c4.3288-1.22083,8.625,2.45844,11.954,4.69366a20.17193,20.17193,0,0,0,4.22089,2.23254,8.63431,8.63431,0,0,1-2.44305-.57965,12.18721,12.18721,0,0,0-2.3877-.63361c-2.04584-.723-4.00214-2.48578-6.012-3.267a13.069,13.069,0,0,0-6.89722-.82355C31.43835,33.49268,32.03088,32.85931,32.53259,32.3963Zm-2.54236,2.81744c.06274-.09546.17236-.26221.1908-.28961.00275-.00409.03583-.0434.05841-.07056a1.10116,1.10116,0,0,0,.49426.05389c3.67255-.97217,6.85461.30463,9.992,2.15527.64636.38129,1.28992.7973,1.96,1.15289a5.56715,5.56715,0,0,0-1.16559.42358c-2.47021-.32526-4.60156-1.86969-7.03186-2.41553a10.07519,10.07519,0,0,0-5.09137.21533C29.67365,35.8205,29.97308,35.23975,29.99023,35.21375Zm-1.02332,2.46838a2.59764,2.59764,0,0,1,.19757-.69366c4.55859-1.56122,7.57928,1.39563,11.67816,2.01764-.82336.49835-1.42883,1.00977-1.7428.98767a2.85811,2.85811,0,0,1-.49188-.10022c-.69171-.18457-1.23206-.26257-1.90533-.50507-.61938-.223-1.44928-.51935-2.04309-.80341-1.11084-.53149-1.87506-1.1308-3.16791-.89526a20.61884,20.61884,0,0,0-2.45288.75439C28.70807,38.588,28.90094,38.59753,28.96692,37.68213Zm9.17126,2.78113-.01532.02374-.01147-.02277Zm-5.15778,4.79333a5.12131,5.12131,0,0,0-3.432.099l-1.30774.84479c.14044-.98114.1947-1.89038.20215-1.98956.005-.06714.01013-.12524.015-.1864a.24049.24049,0,0,0,.11853-.07336c.789-1.05524,2.48846-.15814,3.57642-.09576a4.32272,4.32272,0,0,0,.9068-.05731,4.09721,4.09721,0,0,0-.10321,1.04388C32.95441,44.89954,32.96454,45.05585,32.98041,45.25659Zm-2.34552-2.14844a4.70626,4.70626,0,0,0-1.21307-.15326,2.85244,2.85244,0,0,0-.90967.16162c.01239-.32471.0282-.76617.04382-1.23712a.41018.41018,0,0,0,.18884-.05707,3.35382,3.35382,0,0,1,3.13007-.79553c.58661.18524,1.12378.465,1.7262.61957a8.754,8.754,0,0,0,3.59558.13983,2.98469,2.98469,0,0,1-.51813.46667,5.693,5.693,0,0,1-2.57306.76227,1.49729,1.49729,0,0,0-.29761.07568A6.04461,6.04461,0,0,1,30.63489,43.10815Zm1.09784-2.68469a4.35236,4.35236,0,0,0-3.15289.70166c.02466-.82159.04181-1.56152.03-1.69653,2.40161-.90668,3.69025-1.13617,4.21332-1.02716.37177.07745,3.811,2.1037,5.28375,2.11035-.15686.24982-.3244.5119-.50391.766a.54013.54013,0,0,0-.1333.01074C34.9884,41.868,33.863,40.91589,31.73273,40.42346Zm-4.14246,8.11041a3.939,3.939,0,0,0,.47028-1.31372,3.84842,3.84842,0,0,0,1.20251-.83295,3.71829,3.71829,0,0,1,3.71515-.70209c.01276.004.02631.00446.03931.00775.03748.41412.08582.9035.12854,1.32281a4.09287,4.09287,0,0,0-2.58057.171,5.50247,5.50247,0,0,0-.78229.5498,6.87263,6.87263,0,0,1-1.9826.95959A1.84491,1.84491,0,0,1,27.59027,48.53387Zm.84338.447a7.86581,7.86581,0,0,0,1.9079-.86591,3.15258,3.15258,0,0,1,2.85028-.65509c.01263.12061.02386.22552.03247.30481l.01385.12805c.07648.70355.23553,2.1673-.08966,2.34381-.09381.05133-.457-.0459-1.07458-.454A3.10434,3.10434,0,0,0,30.06244,48.756a1.73235,1.73235,0,0,0-1.14154.246c-.009.0061-.016.01422-.02478.02045A2.23042,2.23042,0,0,1,28.43365,48.98083Zm5.19769,14.28479c-.44678-1.5-.87939-3.14258-1.07959-3.916a.83621.83621,0,0,0,.23419.05c.57806,1.31805.6272,2.85889,1.25452,4.14032A1.01627,1.01627,0,0,0,33.63135,63.26563Zm1.02979-.00293a.186.186,0,0,0-.0415-.00488.21957.21957,0,0,0-.13037.043c-.08948.075-.08728.197-.07745.36957-.68384-1.30969-.70251-2.9292-1.32056-4.28387.048-.01025.09027-.03088.13617-.04529.04742-.00525.09668-.00171.14319-.01007.02289-.00409.042-.0141.06445-.01886.5827,1.3067.6626,2.81592,1.36823,4.03369A.4126.4126,0,0,0,34.66113,63.2627Zm1.08533.83954c-1.33563-1.29047-1.25793-3.27393-1.997-4.88184a1.70346,1.70346,0,0,0,.3761-.20361.14158.14158,0,0,1,.02484.00616,20.30478,20.30478,0,0,0,1.8692,5.17133C35.93848,64.17108,35.8468,64.14081,35.74646,64.10223ZM46.52954,74.87885c-.33972.2251-.70575.46088-1.08252.70245-1.87109,1.2002-4.13818,2.65527-5.2793,4.14746-.54962-1.84552-1.38873-5.72906-1.97345-8.54785-.00378-1.4942-.02191-2.70526-.06274-3.51111.04333-.03766.07678-.06274.1236-.1051a21.49387,21.49387,0,0,0,8.94769,6.41461c.03412.0119.06506.02838.0993.04C47.11145,74.23395,46.86212,74.52106,46.52954,74.87885Zm10.72363,4.32648a20.82387,20.82387,0,0,0-3.42633-3.50116c.0011-.04584-.02814-.064-.07623-.06494-.1535-.12842-.30182-.25018-.45154-.37146a8.84052,8.84052,0,0,0-1.64655-1.43866,19.34181,19.34181,0,0,0,2.88538-1.59943c.06744-.04645.1366-.08887.20313-.13721a11.99409,11.99409,0,0,0,3.40765-3.728C58.5188,70.90942,57.75122,76.926,57.25317,79.20532Zm-4.77423-6.42255q-.16635.08716-.34991.16187c-.05066.02069-.10608.03741-.15863.05652-.07349.02673-.14545.05469-.22272.07831-.07593.02325-.15735.04169-.23694.06177-.05847.01477-.11481.03143-.17523.04437-.09766.021-.20087.03668-.30359.0528-.04675.00739-.09161.0166-.1394.02289-.11621.01538-1.49255.01611-1.515.01428-.17035-.0141-.3457-.02832-.52509-.05371-.01331-.00189-.02631-.00031-.03973-.00226-.18677-.02722-.37848-.05933-.57489-.09937l-.02289-.00372c-.20142-.0415-.408-.08942-.61951-.145l-.00989-.00232c-.33539-.08844-.68463-.19678-1.04523-.32288l-.58984-.22845c-.17383-.06842-.34387-.13092-.52313-.20825-.23792-.10217-.48633-.2229-.73376-.34143-.15155-.07281-.30042-.1413-.45544-.2204-.26239-.13361-.53345-.28363-.80615-.436-.10162-.05682-.19757-.10309-.3006-.1626-.01648-.01147-.03094-.02332-.04736-.03479-.15918-.09229-.31042-.16949-.473-.26831a11.82413,11.82413,0,0,1-2.42474-2.157c-.0188-.01868-.04144-.03912-.05994-.05762-.29016-.32422-.581-.67529-.86987-1.03625q-.0975-.12186-.19458-.24567c-.5744-.73456-1.13446-1.52533-1.65637-2.33673q-.09183-.14273-.18195-.28595c-.25616-.40765-.50549-.818-.73663-1.22729l-.00342-.00635c-.22766-.40338-.43542-.80328-.63214-1.19855q-.07288-.14648-.14258-.29156c-.19019-.39618-.36877-.78772-.51892-1.16327l-.00269-.00739c-.14764-.36981-.26532-.72113-.36755-1.06116-.02582-.08588-.04987-.17029-.07251-.25391a7.01058,7.01058,0,0,1-.20166-.95288c-.01227-.09943-.34564-1.42645-.35461-1.68719a10.77462,10.77462,0,0,1-.083,1.58075c-.14441.37433-.5719.45447-.82214.49939a1.96781,1.96781,0,0,1-1.435-.32489,4.75971,4.75971,0,0,1-1.46747-2.29034,31.58625,31.58625,0,0,1-1.482-5.23437,1.74664,1.74664,0,0,1,.17188-1.512c.00793-.00824.0174-.0152.02576-.02307a1.16234,1.16234,0,0,1,.91925-.23755c.677.06256,2.75671,1.51422,3.06042,1.50372a.66522.66522,0,0,0,.29968-.07941c.54633-.29687.46167-1.17883.43652-1.69037-.02759-.561-.1499-2.98169-.15552-3.58655-.00458-.486.15808-1.60553.597-1.66858a4.88954,4.88954,0,0,0,2.4339-.587A21.36756,21.36756,0,0,0,38.89,40.69116s.10486-.12195.01355-.00043a2.76012,2.76012,0,0,0,.93854-.14331,6.66231,6.66231,0,0,0,1.596-.80261,4.66978,4.66978,0,0,1,2.05658-.87817,4.40406,4.40406,0,0,1,2.16638.55011,11.31135,11.31135,0,0,0,4.83972.92865,69.01268,69.01268,0,0,0,7.30566-1.19952.22462.22462,0,0,1,.11816-.006c.12531.027.24884.0498.37152.07062a13.25168,13.25168,0,0,0,.61768,2.4751c.6532,2.2002,1.62457,5.63855.70923,6.57166a.24333.24333,0,0,0-.04358.27734,1.46525,1.46525,0,0,0,.84473.84039,1.61746,1.61746,0,0,0,.56207.0708,2.183,2.183,0,0,0,.86993-.23889c.00677-.00372.212.9859.30164,1.39478a8.03477,8.03477,0,0,1,.16156,3.84259,2.07407,2.07407,0,0,1-.48621,1.14276.74767.74767,0,0,1-.57452.18182.40515.40515,0,0,1-.29962-.17157c-.05713-.08929-.22443-2.4212-.32343-2.04462-.01007.03839-.02911.338-.04907.70313-.01337.24341-.0271.51587-.03888.75952-.0177.36542-.031.66583-.03192.70551a36.43559,36.43559,0,0,1-1.94934,10.04675A12.11991,12.11991,0,0,1,52.47894,72.78278ZM91.65137,88.69434a.2518.2518,0,0,0-.17187.19336l-.176.93524c-.98737-.42554-1.992-.83044-2.923-1.15686-.54395-.19073-1.053-.3465-1.52722-.47174l.15356-.59961a.251.251,0,0,0-.06152-.23535s-.3457-.3623-1.0459-1.042a5.82121,5.82121,0,0,1-1.20312-2.37109l-.02734-.14746a7.61216,7.61216,0,0,0-1.16113-2.98145,4.28085,4.28085,0,0,0-1.0293-1.166.49835.49835,0,0,1-.25586-.40625.26512.26512,0,0,1,.042-.23053.95694.95694,0,0,1,.50293-.23242,4.63917,4.63917,0,0,1,3.35059,3.32129.25178.25178,0,0,0,.21289.16687,1.40966,1.40966,0,0,1,.15039.02332.24735.24735,0,0,0,.25-.09894l.05957-.08264.00586-.00995.11035-.15381c.07031.02576.13068.05286.19757.0791a4.46479,4.46479,0,0,1,2.32294,1.671,2.98384,2.98384,0,0,1,.22852.90546.60968.60968,0,0,1,.01172.13025.78836.78836,0,0,0,.01758.16089c.02148.11523.11914.105.23633.105h.00977c.11328,0,.21289.02393.24219-.08643a1.91608,1.91608,0,0,0-.28906-1.42627A3.865,3.865,0,0,0,87.16406,81.5a9.745,9.745,0,0,0,.45605-1.24707,3.58236,3.58236,0,0,0,.06445-.95068l-.32715-5.36255c-.00781-.06934-.05762-.6803.51563-.76331a.57739.57739,0,0,1,.70117.43085c.00586.04883.61133,4.92291.66309,5.51276.02832.31934.17969.43854.30176.48151.30566.11133.63574-.19238.72852-.28613a.24927.24927,0,0,0,.06738-.12494l1.22754-5.873a.84953.84953,0,0,1,.27637-.50781.79342.79342,0,0,1,.59863-.11914.49421.49421,0,0,1,.373.21387,1.62042,1.62042,0,0,1,.04,1.11328c-.042.20605-1.043,5.05176-1.15234,5.63574-.05176.2793.002.46777.16211.55957.23926.1377.52344-.07031.63477-.166a.24617.24617,0,0,0,.05664-.07031s2.375-4.36816,2.62012-4.83105c.30762-.57812.56641-.71973.99414-.55664a.23018.23018,0,0,1,.13184.13477,2.29459,2.29459,0,0,1-.20117,1.32715c-.08984.18359-2.21875,4.50586-2.36719,4.85156a.50976.50976,0,0,0,.002.51074.43443.43443,0,0,0,.35156.16992.24881.24881,0,0,0,.165-.07227c1.0459-1.0332,3.07227-3.0293,3.27832-3.209.2998-.2627.58008-.45117.9707-.10547a.23425.23425,0,0,1,.08105.18164,2.591,2.591,0,0,1-.75391,1.31738s-2.37793,2.60254-2.60352,2.85938a1.12316,1.12316,0,0,0-.291.53809L94.31055,85.333C93.23047,88.15527,91.666,88.69043,91.65137,88.69434Z" transform="translate(-1.40028 -26.30742)"></path></svg>